<?xml version="1.0" encoding="UTF-8"?>
<svg xmlns="http://www.w3.org/2000/svg" width="1080" height="640" viewBox="0 0 1080 640" role="img" aria-label="Funções de ativação — exemplos de curvas">
  <rect x="0" y="0" width="1080" height="640" fill="white"/>
  <text x="24" y="18" font-family="system-ui, -apple-system, Segoe UI, Roboto, Arial" font-size="18" fill="#111">Funções de ativação — exemplos de curvas</text>
  <rect x="24.00" y="24.00" width="333.33" height="288.00" fill="none" stroke="#999" stroke-width="1"/>
<line x1="40.00" y1="296.00" x2="341.33" y2="296.00" stroke="#666" stroke-width="1"/>
<line x1="190.67" y1="40.00" x2="190.67" y2="296.00" stroke="#666" stroke-width="1"/>
<polyline points="40.00,295.37 41.01,295.34 42.02,295.31 43.02,295.29 44.03,295.26 45.04,295.23 46.05,295.20 47.05,295.16 48.06,295.13 49.07,295.09 50.08,295.06 51.09,295.02 52.09,294.98 53.10,294.94 54.11,294.89 55.12,294.85 56.12,294.80 57.13,294.75 58.14,294.70 59.15,294.65 60.16,294.59 61.16,294.53 62.17,294.47 63.18,294.41 64.19,294.35 65.20,294.28 66.20,294.21 67.21,294.14 68.22,294.06 69.23,293.98 70.23,293.90 71.24,293.82 72.25,293.73 73.26,293.64 74.27,293.54 75.27,293.44 76.28,293.34 77.29,293.23 78.30,293.12 79.30,293.00 80.31,292.88 81.32,292.75 82.33,292.62 83.34,292.48 84.34,292.34 85.35,292.20 86.36,292.04 87.37,291.88 88.37,291.72 89.38,291.54 90.39,291.37 91.40,291.18 92.41,290.99 93.41,290.78 94.42,290.58 95.43,290.36 96.44,290.13 97.44,289.90 98.45,289.65 99.46,289.40 100.47,289.14 101.48,288.86 102.48,288.58 103.49,288.29 104.50,287.98 105.51,287.66 106.52,287.33 107.52,286.99 108.53,286.63 109.54,286.27 110.55,285.88 111.55,285.49 112.56,285.07 113.57,284.65 114.58,284.20 115.59,283.74 116.59,283.27 117.60,282.77 118.61,282.26 119.62,281.73 120.62,281.18 121.63,280.61 122.64,280.01 123.65,279.40 124.66,278.77 125.66,278.11 126.67,277.43 127.68,276.73 128.69,276.00 129.69,275.25 130.70,274.47 131.71,273.67 132.72,272.84 133.73,271.98 134.73,271.09 135.74,270.17 136.75,269.22 137.76,268.25 138.76,267.24 139.77,266.20 140.78,265.12 141.79,264.02 142.80,262.88 143.80,261.70 144.81,260.49 145.82,259.25 146.83,257.96 147.84,256.65 148.84,255.29 149.85,253.90 150.86,252.47 151.87,251.00 152.87,249.49 153.88,247.94 154.89,246.36 155.90,244.73 156.91,243.07 157.91,241.36 158.92,239.62 159.93,237.83 160.94,236.01 161.94,234.15 162.95,232.24 163.96,230.30 164.97,228.32 165.98,226.31 166.98,224.25 167.99,222.16 169.00,220.03 170.01,217.87 171.01,215.68 172.02,213.45 173.03,211.19 174.04,208.90 175.05,206.58 176.05,204.23 177.06,201.85 178.07,199.45 179.08,197.03 180.08,194.58 181.09,192.11 182.10,189.62 183.11,187.12 184.12,184.60 185.12,182.07 186.13,179.53 187.14,176.98 188.15,174.42 189.15,171.85 190.16,169.28 191.17,166.72 192.18,164.15 193.19,161.58 194.19,159.02 195.20,156.47 196.21,153.93 197.22,151.40 198.23,148.88 199.23,146.38 200.24,143.89 201.25,141.42 202.26,138.97 203.26,136.55 204.27,134.15 205.28,131.77 206.29,129.42 207.30,127.10 208.30,124.81 209.31,122.55 210.32,120.32 211.33,118.13 212.33,115.97 213.34,113.84 214.35,111.75 215.36,109.69 216.37,107.68 217.37,105.70 218.38,103.76 219.39,101.85 220.40,99.99 221.40,98.17 222.41,96.38 223.42,94.64 224.43,92.93 225.44,91.27 226.44,89.64 227.45,88.06 228.46,86.51 229.47,85.00 230.47,83.53 231.48,82.10 232.49,80.71 233.50,79.35 234.51,78.04 235.51,76.75 236.52,75.51 237.53,74.30 238.54,73.12 239.55,71.98 240.55,70.88 241.56,69.80 242.57,68.76 243.58,67.75 244.58,66.78 245.59,65.83 246.60,64.91 247.61,64.02 248.62,63.16 249.62,62.33 250.63,61.53 251.64,60.75 252.65,60.00 253.65,59.27 254.66,58.57 255.67,57.89 256.68,57.23 257.69,56.60 258.69,55.99 259.70,55.39 260.71,54.82 261.72,54.27 262.72,53.74 263.73,53.23 264.74,52.73 265.75,52.26 266.76,51.80 267.76,51.35 268.77,50.93 269.78,50.51 270.79,50.12 271.79,49.73 272.80,49.37 273.81,49.01 274.82,48.67 275.83,48.34 276.83,48.02 277.84,47.71 278.85,47.42 279.86,47.14 280.87,46.86 281.87,46.60 282.88,46.35 283.89,46.10 284.90,45.87 285.90,45.64 286.91,45.42 287.92,45.22 288.93,45.01 289.94,44.82 290.94,44.63 291.95,44.46 292.96,44.28 293.97,44.12 294.97,43.96 295.98,43.80 296.99,43.66 298.00,43.52 299.01,43.38 300.01,43.25 301.02,43.12 302.03,43.00 303.04,42.88 304.04,42.77 305.05,42.66 306.06,42.56 307.07,42.46 308.08,42.36 309.08,42.27 310.09,42.18 311.10,42.10 312.11,42.02 313.11,41.94 314.12,41.86 315.13,41.79 316.14,41.72 317.15,41.65 318.15,41.59 319.16,41.53 320.17,41.47 321.18,41.41 322.19,41.35 323.19,41.30 324.20,41.25 325.21,41.20 326.22,41.15 327.22,41.11 328.23,41.06 329.24,41.02 330.25,40.98 331.26,40.94 332.26,40.91 333.27,40.87 334.28,40.84 335.29,40.80 336.29,40.77 337.30,40.74 338.31,40.71 339.32,40.69 340.33,40.66 341.33,40.63" fill="none" stroke="#111" stroke-width="2"/>
<text x="34.00" y="46.00" font-family="system-ui, -apple-system, Segoe UI, Roboto, Arial" font-size="14" fill="#111">Sigmoid</text>
  <rect x="373.33" y="24.00" width="333.33" height="288.00" fill="none" stroke="#999" stroke-width="1"/>
<line x1="389.33" y1="168.00" x2="690.67" y2="168.00" stroke="#666" stroke-width="1"/>
<line x1="540.00" y1="40.00" x2="540.00" y2="296.00" stroke="#666" stroke-width="1"/>
<polyline points="389.33,296.00 390.34,296.00 391.35,296.00 392.36,296.00 393.36,296.00 394.37,296.00 395.38,296.00 396.39,296.00 397.40,296.00 398.40,296.00 399.41,296.00 400.42,296.00 401.43,296.00 402.43,296.00 403.44,296.00 404.45,295.99 405.46,295.99 406.47,295.99 407.47,295.99 408.48,295.99 409.49,295.99 410.50,295.99 411.51,295.99 412.51,295.99 413.52,295.99 414.53,295.99 415.54,295.99 416.54,295.99 417.55,295.99 418.56,295.98 419.57,295.98 420.58,295.98 421.58,295.98 422.59,295.98 423.60,295.98 424.61,295.97 425.61,295.97 426.62,295.97 427.63,295.97 428.64,295.96 429.65,295.96 430.65,295.96 431.66,295.95 432.67,295.95 433.68,295.95 434.68,295.94 435.69,295.94 436.70,295.93 437.71,295.93 438.72,295.92 439.72,295.91 440.73,295.91 441.74,295.90 442.75,295.89 443.75,295.88 444.76,295.87 445.77,295.86 446.78,295.85 447.79,295.83 448.79,295.82 449.80,295.81 450.81,295.79 451.82,295.77 452.82,295.75 453.83,295.73 454.84,295.71 455.85,295.69 456.86,295.66 457.86,295.63 458.87,295.60 459.88,295.57 460.89,295.53 461.90,295.49 462.90,295.45 463.91,295.40 464.92,295.35 465.93,295.30 466.93,295.24 467.94,295.18 468.95,295.11 469.96,295.04 470.97,294.96 471.97,294.87 472.98,294.78 473.99,294.67 475.00,294.56 476.00,294.44 477.01,294.31 478.02,294.18 479.03,294.02 480.04,293.86 481.04,293.68 482.05,293.49 483.06,293.28 484.07,293.06 485.07,292.82 486.08,292.55 487.09,292.27 488.10,291.96 489.11,291.63 490.11,291.27 491.12,290.89 492.13,290.47 493.14,290.02 494.14,289.53 495.15,289.00 496.16,288.43 497.17,287.82 498.18,287.16 499.18,286.45 500.19,285.69 501.20,284.86 502.21,283.97 503.22,283.02 504.22,281.99 505.23,280.89 506.24,279.71 507.25,278.44 508.25,277.08 509.26,275.63 510.27,274.07 511.28,272.41 512.29,270.63 513.29,268.74 514.30,266.72 515.31,264.57 516.32,262.29 517.32,259.87 518.33,257.31 519.34,254.60 520.35,251.74 521.36,248.72 522.36,245.55 523.37,242.22 524.38,238.73 525.39,235.08 526.39,231.28 527.40,227.32 528.41,223.21 529.42,218.96 530.43,214.57 531.43,210.05 532.44,205.41 533.45,200.65 534.46,195.80 535.46,190.87 536.47,185.86 537.48,180.80 538.49,175.70 539.50,170.57 540.50,165.43 541.51,160.30 542.52,155.20 543.53,150.14 544.54,145.13 545.54,140.20 546.55,135.35 547.56,130.59 548.57,125.95 549.57,121.43 550.58,117.04 551.59,112.79 552.60,108.68 553.61,104.72 554.61,100.92 555.62,97.27 556.63,93.78 557.64,90.45 558.64,87.28 559.65,84.26 560.66,81.40 561.67,78.69 562.68,76.13 563.68,73.71 564.69,71.43 565.70,69.28 566.71,67.26 567.71,65.37 568.72,63.59 569.73,61.93 570.74,60.37 571.75,58.92 572.75,57.56 573.76,56.29 574.77,55.11 575.78,54.01 576.78,52.98 577.79,52.03 578.80,51.14 579.81,50.31 580.82,49.55 581.82,48.84 582.83,48.18 583.84,47.57 584.85,47.00 585.86,46.47 586.86,45.98 587.87,45.53 588.88,45.11 589.89,44.73 590.89,44.37 591.90,44.04 592.91,43.73 593.92,43.45 594.93,43.18 595.93,42.94 596.94,42.72 597.95,42.51 598.96,42.32 599.96,42.14 600.97,41.98 601.98,41.82 602.99,41.69 604.00,41.56 605.00,41.44 606.01,41.33 607.02,41.22 608.03,41.13 609.03,41.04 610.04,40.96 611.05,40.89 612.06,40.82 613.07,40.76 614.07,40.70 615.08,40.65 616.09,40.60 617.10,40.55 618.10,40.51 619.11,40.47 620.12,40.43 621.13,40.40 622.14,40.37 623.14,40.34 624.15,40.31 625.16,40.29 626.17,40.27 627.18,40.25 628.18,40.23 629.19,40.21 630.20,40.19 631.21,40.18 632.21,40.17 633.22,40.15 634.23,40.14 635.24,40.13 636.25,40.12 637.25,40.11 638.26,40.10 639.27,40.09 640.28,40.09 641.28,40.08 642.29,40.07 643.30,40.07 644.31,40.06 645.32,40.06 646.32,40.05 647.33,40.05 648.34,40.05 649.35,40.04 650.35,40.04 651.36,40.04 652.37,40.03 653.38,40.03 654.39,40.03 655.39,40.03 656.40,40.02 657.41,40.02 658.42,40.02 659.42,40.02 660.43,40.02 661.44,40.02 662.45,40.01 663.46,40.01 664.46,40.01 665.47,40.01 666.48,40.01 667.49,40.01 668.49,40.01 669.50,40.01 670.51,40.01 671.52,40.01 672.53,40.01 673.53,40.01 674.54,40.01 675.55,40.01 676.56,40.00 677.57,40.00 678.57,40.00 679.58,40.00 680.59,40.00 681.60,40.00 682.60,40.00 683.61,40.00 684.62,40.00 685.63,40.00 686.64,40.00 687.64,40.00 688.65,40.00 689.66,40.00 690.67,40.00" fill="none" stroke="#111" stroke-width="2"/>
<text x="383.33" y="46.00" font-family="system-ui, -apple-system, Segoe UI, Roboto, Arial" font-size="14" fill="#111">Tanh</text>
  <rect x="722.67" y="24.00" width="333.33" height="288.00" fill="none" stroke="#999" stroke-width="1"/>
<line x1="738.67" y1="259.43" x2="1040.00" y2="259.43" stroke="#666" stroke-width="1"/>
<line x1="889.33" y1="40.00" x2="889.33" y2="296.00" stroke="#666" stroke-width="1"/>
<polyline points="738.67,259.43 739.67,259.43 740.68,259.43 741.69,259.43 742.70,259.43 743.71,259.43 744.71,259.43 745.72,259.43 746.73,259.43 747.74,259.43 748.74,259.43 749.75,259.43 750.76,259.43 751.77,259.43 752.78,259.43 753.78,259.43 754.79,259.43 755.80,259.43 756.81,259.43 757.81,259.43 758.82,259.43 759.83,259.43 760.84,259.43 761.85,259.43 762.85,259.43 763.86,259.43 764.87,259.43 765.88,259.43 766.89,259.43 767.89,259.43 768.90,259.43 769.91,259.43 770.92,259.43 771.92,259.43 772.93,259.43 773.94,259.43 774.95,259.43 775.96,259.43 776.96,259.43 777.97,259.43 778.98,259.43 779.99,259.43 780.99,259.43 782.00,259.43 783.01,259.43 784.02,259.43 785.03,259.43 786.03,259.43 787.04,259.43 788.05,259.43 789.06,259.43 790.06,259.43 791.07,259.43 792.08,259.43 793.09,259.43 794.10,259.43 795.10,259.43 796.11,259.43 797.12,259.43 798.13,259.43 799.13,259.43 800.14,259.43 801.15,259.43 802.16,259.43 803.17,259.43 804.17,259.43 805.18,259.43 806.19,259.43 807.20,259.43 808.21,259.43 809.21,259.43 810.22,259.43 811.23,259.43 812.24,259.43 813.24,259.43 814.25,259.43 815.26,259.43 816.27,259.43 817.28,259.43 818.28,259.43 819.29,259.43 820.30,259.43 821.31,259.43 822.31,259.43 823.32,259.43 824.33,259.43 825.34,259.43 826.35,259.43 827.35,259.43 828.36,259.43 829.37,259.43 830.38,259.43 831.38,259.43 832.39,259.43 833.40,259.43 834.41,259.43 835.42,259.43 836.42,259.43 837.43,259.43 838.44,259.43 839.45,259.43 840.45,259.43 841.46,259.43 842.47,259.43 843.48,259.43 844.49,259.43 845.49,259.43 846.50,259.43 847.51,259.43 848.52,259.43 849.53,259.43 850.53,259.43 851.54,259.43 852.55,259.43 853.56,259.43 854.56,259.43 855.57,259.43 856.58,259.43 857.59,259.43 858.60,259.43 859.60,259.43 860.61,259.43 861.62,259.43 862.63,259.43 863.63,259.43 864.64,259.43 865.65,259.43 866.66,259.43 867.67,259.43 868.67,259.43 869.68,259.43 870.69,259.43 871.70,259.43 872.70,259.43 873.71,259.43 874.72,259.43 875.73,259.43 876.74,259.43 877.74,259.43 878.75,259.43 879.76,259.43 880.77,259.43 881.77,259.43 882.78,259.43 883.79,259.43 884.80,259.43 885.81,259.43 886.81,259.43 887.82,259.43 888.83,259.43 889.84,258.69 890.85,257.23 891.85,255.76 892.86,254.29 893.87,252.82 894.88,251.36 895.88,249.89 896.89,248.42 897.90,246.95 898.91,245.48 899.92,244.02 900.92,242.55 901.93,241.08 902.94,239.61 903.95,238.15 904.95,236.68 905.96,235.21 906.97,233.74 907.98,232.28 908.99,230.81 909.99,229.34 911.00,227.87 912.01,226.40 913.02,224.94 914.02,223.47 915.03,222.00 916.04,220.53 917.05,219.07 918.06,217.60 919.06,216.13 920.07,214.66 921.08,213.19 922.09,211.73 923.09,210.26 924.10,208.79 925.11,207.32 926.12,205.86 927.13,204.39 928.13,202.92 929.14,201.45 930.15,199.98 931.16,198.52 932.16,197.05 933.17,195.58 934.18,194.11 935.19,192.65 936.20,191.18 937.20,189.71 938.21,188.24 939.22,186.77 940.23,185.31 941.24,183.84 942.24,182.37 943.25,180.90 944.26,179.44 945.27,177.97 946.27,176.50 947.28,175.03 948.29,173.57 949.30,172.10 950.31,170.63 951.31,169.16 952.32,167.69 953.33,166.23 954.34,164.76 955.34,163.29 956.35,161.82 957.36,160.36 958.37,158.89 959.38,157.42 960.38,155.95 961.39,154.48 962.40,153.02 963.41,151.55 964.41,150.08 965.42,148.61 966.43,147.15 967.44,145.68 968.45,144.21 969.45,142.74 970.46,141.27 971.47,139.81 972.48,138.34 973.48,136.87 974.49,135.40 975.50,133.94 976.51,132.47 977.52,131.00 978.52,129.53 979.53,128.06 980.54,126.60 981.55,125.13 982.56,123.66 983.56,122.19 984.57,120.73 985.58,119.26 986.59,117.79 987.59,116.32 988.60,114.86 989.61,113.39 990.62,111.92 991.63,110.45 992.63,108.98 993.64,107.52 994.65,106.05 995.66,104.58 996.66,103.11 997.67,101.65 998.68,100.18 999.69,98.71 1000.70,97.24 1001.70,95.77 1002.71,94.31 1003.72,92.84 1004.73,91.37 1005.73,89.90 1006.74,88.44 1007.75,86.97 1008.76,85.50 1009.77,84.03 1010.77,82.56 1011.78,81.10 1012.79,79.63 1013.80,78.16 1014.80,76.69 1015.81,75.23 1016.82,73.76 1017.83,72.29 1018.84,70.82 1019.84,69.35 1020.85,67.89 1021.86,66.42 1022.87,64.95 1023.88,63.48 1024.88,62.02 1025.89,60.55 1026.90,59.08 1027.91,57.61 1028.91,56.15 1029.92,54.68 1030.93,53.21 1031.94,51.74 1032.95,50.27 1033.95,48.81 1034.96,47.34 1035.97,45.87 1036.98,44.40 1037.98,42.94 1038.99,41.47 1040.00,40.00" fill="none" stroke="#111" stroke-width="2"/>
<text x="732.67" y="46.00" font-family="system-ui, -apple-system, Segoe UI, Roboto, Arial" font-size="14" fill="#111">ReLU</text>
  <rect x="24.00" y="328.00" width="333.33" height="288.00" fill="none" stroke="#999" stroke-width="1"/>
<line x1="40.00" y1="563.43" x2="341.33" y2="563.43" stroke="#666" stroke-width="1"/>
<line x1="190.67" y1="344.00" x2="190.67" y2="600.00" stroke="#666" stroke-width="1"/>
<polyline points="40.00,565.62 41.01,565.61 42.02,565.59 43.02,565.58 44.03,565.56 45.04,565.55 46.05,565.53 47.05,565.52 48.06,565.51 49.07,565.49 50.08,565.48 51.09,565.46 52.09,565.45 53.10,565.43 54.11,565.42 55.12,565.40 56.12,565.39 57.13,565.37 58.14,565.36 59.15,565.34 60.16,565.33 61.16,565.31 62.17,565.30 63.18,565.29 64.19,565.27 65.20,565.26 66.20,565.24 67.21,565.23 68.22,565.21 69.23,565.20 70.23,565.18 71.24,565.17 72.25,565.15 73.26,565.14 74.27,565.12 75.27,565.11 76.28,565.09 77.29,565.08 78.30,565.07 79.30,565.05 80.31,565.04 81.32,565.02 82.33,565.01 83.34,564.99 84.34,564.98 85.35,564.96 86.36,564.95 87.37,564.93 88.37,564.92 89.38,564.90 90.39,564.89 91.40,564.87 92.41,564.86 93.41,564.84 94.42,564.83 95.43,564.82 96.44,564.80 97.44,564.79 98.45,564.77 99.46,564.76 100.47,564.74 101.48,564.73 102.48,564.71 103.49,564.70 104.50,564.68 105.51,564.67 106.52,564.65 107.52,564.64 108.53,564.62 109.54,564.61 110.55,564.60 111.55,564.58 112.56,564.57 113.57,564.55 114.58,564.54 115.59,564.52 116.59,564.51 117.60,564.49 118.61,564.48 119.62,564.46 120.62,564.45 121.63,564.43 122.64,564.42 123.65,564.40 124.66,564.39 125.66,564.38 126.67,564.36 127.68,564.35 128.69,564.33 129.69,564.32 130.70,564.30 131.71,564.29 132.72,564.27 133.73,564.26 134.73,564.24 135.74,564.23 136.75,564.21 137.76,564.20 138.76,564.18 139.77,564.17 140.78,564.16 141.79,564.14 142.80,564.13 143.80,564.11 144.81,564.10 145.82,564.08 146.83,564.07 147.84,564.05 148.84,564.04 149.85,564.02 150.86,564.01 151.87,563.99 152.87,563.98 153.88,563.96 154.89,563.95 155.90,563.93 156.91,563.92 157.91,563.91 158.92,563.89 159.93,563.88 160.94,563.86 161.94,563.85 162.95,563.83 163.96,563.82 164.97,563.80 165.98,563.79 166.98,563.77 167.99,563.76 169.00,563.74 170.01,563.73 171.01,563.71 172.02,563.70 173.03,563.69 174.04,563.67 175.05,563.66 176.05,563.64 177.06,563.63 178.07,563.61 179.08,563.60 180.08,563.58 181.09,563.57 182.10,563.55 183.11,563.54 184.12,563.52 185.12,563.51 186.13,563.49 187.14,563.48 188.15,563.47 189.15,563.45 190.16,563.44 191.17,562.69 192.18,561.23 193.19,559.76 194.19,558.29 195.20,556.82 196.21,555.36 197.22,553.89 198.23,552.42 199.23,550.95 200.24,549.48 201.25,548.02 202.26,546.55 203.26,545.08 204.27,543.61 205.28,542.15 206.29,540.68 207.30,539.21 208.30,537.74 209.31,536.28 210.32,534.81 211.33,533.34 212.33,531.87 213.34,530.40 214.35,528.94 215.36,527.47 216.37,526.00 217.37,524.53 218.38,523.07 219.39,521.60 220.40,520.13 221.40,518.66 222.41,517.19 223.42,515.73 224.43,514.26 225.44,512.79 226.44,511.32 227.45,509.86 228.46,508.39 229.47,506.92 230.47,505.45 231.48,503.98 232.49,502.52 233.50,501.05 234.51,499.58 235.51,498.11 236.52,496.65 237.53,495.18 238.54,493.71 239.55,492.24 240.55,490.77 241.56,489.31 242.57,487.84 243.58,486.37 244.58,484.90 245.59,483.44 246.60,481.97 247.61,480.50 248.62,479.03 249.62,477.57 250.63,476.10 251.64,474.63 252.65,473.16 253.65,471.69 254.66,470.23 255.67,468.76 256.68,467.29 257.69,465.82 258.69,464.36 259.70,462.89 260.71,461.42 261.72,459.95 262.72,458.48 263.73,457.02 264.74,455.55 265.75,454.08 266.76,452.61 267.76,451.15 268.77,449.68 269.78,448.21 270.79,446.74 271.79,445.27 272.80,443.81 273.81,442.34 274.82,440.87 275.83,439.40 276.83,437.94 277.84,436.47 278.85,435.00 279.86,433.53 280.87,432.06 281.87,430.60 282.88,429.13 283.89,427.66 284.90,426.19 285.90,424.73 286.91,423.26 287.92,421.79 288.93,420.32 289.94,418.86 290.94,417.39 291.95,415.92 292.96,414.45 293.97,412.98 294.97,411.52 295.98,410.05 296.99,408.58 298.00,407.11 299.01,405.65 300.01,404.18 301.02,402.71 302.03,401.24 303.04,399.77 304.04,398.31 305.05,396.84 306.06,395.37 307.07,393.90 308.08,392.44 309.08,390.97 310.09,389.50 311.10,388.03 312.11,386.56 313.11,385.10 314.12,383.63 315.13,382.16 316.14,380.69 317.15,379.23 318.15,377.76 319.16,376.29 320.17,374.82 321.18,373.35 322.19,371.89 323.19,370.42 324.20,368.95 325.21,367.48 326.22,366.02 327.22,364.55 328.23,363.08 329.24,361.61 330.25,360.15 331.26,358.68 332.26,357.21 333.27,355.74 334.28,354.27 335.29,352.81 336.29,351.34 337.30,349.87 338.31,348.40 339.32,346.94 340.33,345.47 341.33,344.00" fill="none" stroke="#111" stroke-width="2"/>
<text x="34.00" y="350.00" font-family="system-ui, -apple-system, Segoe UI, Roboto, Arial" font-size="14" fill="#111">Leaky ReLU (α=0,01)</text>
  <rect x="373.33" y="328.00" width="333.33" height="288.00" fill="none" stroke="#999" stroke-width="1"/>
<line x1="389.33" y1="600.00" x2="690.67" y2="600.00" stroke="#666" stroke-width="1"/>
<line x1="540.00" y1="344.00" x2="540.00" y2="600.00" stroke="#666" stroke-width="1"/>
<polyline points="389.33,599.68 390.34,599.67 391.35,599.66 392.36,599.64 393.36,599.63 394.37,599.61 395.38,599.60 396.39,599.58 397.40,599.56 398.40,599.55 399.41,599.53 400.42,599.51 401.43,599.49 402.43,599.47 403.44,599.44 404.45,599.42 405.46,599.40 406.47,599.37 407.47,599.35 408.48,599.32 409.49,599.29 410.50,599.27 411.51,599.24 412.51,599.20 413.52,599.17 414.53,599.14 415.54,599.10 416.54,599.07 417.55,599.03 418.56,598.99 419.57,598.95 420.58,598.90 421.58,598.86 422.59,598.81 423.60,598.76 424.61,598.71 425.61,598.66 426.62,598.61 427.63,598.55 428.64,598.49 429.65,598.43 430.65,598.37 431.66,598.30 432.67,598.23 433.68,598.16 434.68,598.08 435.69,598.01 436.70,597.92 437.71,597.84 438.72,597.75 439.72,597.66 440.73,597.57 441.74,597.47 442.75,597.37 443.75,597.26 444.76,597.15 445.77,597.03 446.78,596.91 447.79,596.79 448.79,596.66 449.80,596.52 450.81,596.38 451.82,596.24 452.82,596.08 453.83,595.93 454.84,595.76 455.85,595.59 456.86,595.41 457.86,595.23 458.87,595.04 459.88,594.84 460.89,594.63 461.90,594.42 462.90,594.19 463.91,593.96 464.92,593.72 465.93,593.47 466.93,593.21 467.94,592.94 468.95,592.66 469.96,592.37 470.97,592.06 471.97,591.75 472.98,591.42 473.99,591.08 475.00,590.73 476.00,590.37 477.01,589.99 478.02,589.59 479.03,589.19 480.04,588.76 481.04,588.32 482.05,587.87 483.06,587.40 484.07,586.91 485.07,586.40 486.08,585.87 487.09,585.33 488.10,584.76 489.11,584.18 490.11,583.57 491.12,582.94 492.13,582.29 493.14,581.62 494.14,580.92 495.15,580.20 496.16,579.46 497.17,578.68 498.18,577.89 499.18,577.06 500.19,576.21 501.20,575.33 502.21,574.42 503.22,573.48 504.22,572.51 505.23,571.51 506.24,570.48 507.25,569.42 508.25,568.32 509.26,567.19 510.27,566.02 511.28,564.82 512.29,563.59 513.29,562.32 514.30,561.01 515.31,559.66 516.32,558.28 517.32,556.86 518.33,555.40 519.34,553.90 520.35,552.37 521.36,550.79 522.36,549.18 523.37,547.52 524.38,545.83 525.39,544.09 526.39,542.32 527.40,540.51 528.41,538.65 529.42,536.76 530.43,534.83 531.43,532.86 532.44,530.86 533.45,528.81 534.46,526.73 535.46,524.61 536.47,522.46 537.48,520.28 538.49,518.06 539.50,515.80 540.50,513.52 541.51,511.21 542.52,508.87 543.53,506.50 544.54,504.10 545.54,501.68 546.55,499.24 547.56,496.78 548.57,494.30 549.57,491.80 550.58,489.29 551.59,486.76 552.60,484.22 553.61,481.67 554.61,479.11 555.62,476.55 556.63,473.98 557.64,471.41 558.64,468.84 559.65,466.28 560.66,463.72 561.67,461.16 562.68,458.62 563.68,456.08 564.69,453.56 565.70,451.05 566.71,448.56 567.71,446.09 568.72,443.64 569.73,441.20 570.74,438.80 571.75,436.41 572.75,434.06 573.76,431.73 574.77,429.43 575.78,427.16 576.78,424.92 577.79,422.72 578.80,420.55 579.81,418.41 580.82,416.31 581.82,414.25 582.83,412.22 583.84,410.23 584.85,408.28 585.86,406.37 586.86,404.49 587.87,402.66 588.88,400.86 589.89,399.11 590.89,397.39 591.90,395.72 592.91,394.08 593.92,392.48 594.93,390.92 595.93,389.41 596.94,387.93 597.95,386.49 598.96,385.08 599.96,383.72 600.97,382.39 601.98,381.10 602.99,379.84 604.00,378.62 605.00,377.44 606.01,376.29 607.02,375.17 608.03,374.09 609.03,373.04 610.04,372.02 611.05,371.04 612.06,370.08 613.07,369.16 614.07,368.26 615.08,367.40 616.09,366.56 617.10,365.74 618.10,364.96 619.11,364.20 620.12,363.46 621.13,362.76 622.14,362.07 623.14,361.41 624.15,360.77 625.16,360.15 626.17,359.55 627.18,358.98 628.18,358.42 629.19,357.88 630.20,357.37 631.21,356.87 632.21,356.39 633.22,355.92 634.23,355.47 635.24,355.04 636.25,354.62 637.25,354.22 638.26,353.84 639.27,353.46 640.28,353.10 641.28,352.76 642.29,352.43 643.30,352.10 644.31,351.80 645.32,351.50 646.32,351.21 647.33,350.94 648.34,350.67 649.35,350.41 650.35,350.17 651.36,349.93 652.37,349.70 653.38,349.48 654.39,349.27 655.39,349.07 656.40,348.87 657.41,348.68 658.42,348.50 659.42,348.33 660.43,348.16 661.44,348.00 662.45,347.85 663.46,347.70 664.46,347.55 665.47,347.42 666.48,347.28 667.49,347.16 668.49,347.03 669.50,346.91 670.51,346.80 671.52,346.69 672.53,346.59 673.53,346.49 674.54,346.39 675.55,346.30 676.56,346.21 677.57,346.12 678.57,346.04 679.58,345.96 680.59,345.88 681.60,345.81 682.60,345.74 683.61,345.67 684.62,345.60 685.63,345.54 686.64,345.48 687.64,345.42 688.65,345.37 689.66,345.31 690.67,345.26" fill="none" stroke="#111" stroke-width="2"/>
<text x="383.33" y="350.00" font-family="system-ui, -apple-system, Segoe UI, Roboto, Arial" font-size="14" fill="#111">Softmax (p(classe 1) com logits=[x,0,0])</text>
</svg>
